<mxfile host="Electron" modified="2024-04-11T05:40:43.275Z" agent="Mozilla/5.0 (X11; Linux x86_64) AppleWebKit/537.36 (KHTML, like Gecko) draw.io/24.1.0 Chrome/120.0.6099.109 Electron/28.1.0 Safari/537.36" etag="IeXKsY_2Rd5HfmdnkStS" version="24.1.0" type="device">
  <diagram name="Page-1" id="gKYqRI-5yuIGOABqSGbJ">
    <mxGraphModel dx="574" dy="383" grid="1" gridSize="10" guides="1" tooltips="1" connect="1" arrows="1" fold="1" page="1" pageScale="1" pageWidth="850" pageHeight="1100" math="0" shadow="0">
      <root>
        <mxCell id="0" />
        <mxCell id="1" parent="0" />
        <mxCell id="DsBhjwMzgaidIlR-vrUR-4" style="edgeStyle=orthogonalEdgeStyle;rounded=0;orthogonalLoop=1;jettySize=auto;html=1;exitX=0.5;exitY=1;exitDx=0;exitDy=0;entryX=0.5;entryY=0;entryDx=0;entryDy=0;" parent="1" source="DsBhjwMzgaidIlR-vrUR-1" target="DsBhjwMzgaidIlR-vrUR-2" edge="1">
          <mxGeometry relative="1" as="geometry" />
        </mxCell>
        <mxCell id="DsBhjwMzgaidIlR-vrUR-1" value="EQUIP FUNCTION" style="rounded=1;whiteSpace=wrap;html=1;" parent="1" vertex="1">
          <mxGeometry x="80" y="40" width="115" height="40" as="geometry" />
        </mxCell>
        <mxCell id="DsBhjwMzgaidIlR-vrUR-5" style="edgeStyle=orthogonalEdgeStyle;rounded=0;orthogonalLoop=1;jettySize=auto;html=1;exitX=1;exitY=0.5;exitDx=0;exitDy=0;entryX=0;entryY=0.5;entryDx=0;entryDy=0;" parent="1" source="DsBhjwMzgaidIlR-vrUR-2" target="DsBhjwMzgaidIlR-vrUR-8" edge="1">
          <mxGeometry relative="1" as="geometry">
            <mxPoint x="240" y="140" as="targetPoint" />
          </mxGeometry>
        </mxCell>
        <mxCell id="DsBhjwMzgaidIlR-vrUR-6" style="edgeStyle=orthogonalEdgeStyle;rounded=0;orthogonalLoop=1;jettySize=auto;html=1;exitX=0.5;exitY=1;exitDx=0;exitDy=0;" parent="1" source="DsBhjwMzgaidIlR-vrUR-2" target="DsBhjwMzgaidIlR-vrUR-7" edge="1">
          <mxGeometry relative="1" as="geometry">
            <mxPoint x="137.66666666666663" y="200" as="targetPoint" />
          </mxGeometry>
        </mxCell>
        <mxCell id="DsBhjwMzgaidIlR-vrUR-2" value="&lt;p style=&quot;line-height: 40%;&quot;&gt;&lt;font style=&quot;font-size: 6px;&quot;&gt;Selector is over an &#39;equippable&#39; item. Is it currently equipped?&lt;/font&gt;&lt;/p&gt;" style="rounded=1;whiteSpace=wrap;html=1;" parent="1" vertex="1">
          <mxGeometry x="97.5" y="120" width="80" height="40" as="geometry" />
        </mxCell>
        <mxCell id="0I2AwXr67QMVDCoN9HVT-9" style="edgeStyle=orthogonalEdgeStyle;rounded=0;orthogonalLoop=1;jettySize=auto;html=1;exitX=1;exitY=0.5;exitDx=0;exitDy=0;entryX=0;entryY=0.5;entryDx=0;entryDy=0;" edge="1" parent="1" source="DsBhjwMzgaidIlR-vrUR-7" target="0I2AwXr67QMVDCoN9HVT-8">
          <mxGeometry relative="1" as="geometry" />
        </mxCell>
        <mxCell id="DsBhjwMzgaidIlR-vrUR-7" value="&lt;p style=&quot;line-height: 40%;&quot;&gt;&lt;span style=&quot;font-size: 6px;&quot;&gt;YES&lt;/span&gt;&lt;/p&gt;" style="rounded=1;whiteSpace=wrap;html=1;" parent="1" vertex="1">
          <mxGeometry x="117.5" y="220" width="40" height="40" as="geometry" />
        </mxCell>
        <mxCell id="DsBhjwMzgaidIlR-vrUR-12" style="edgeStyle=orthogonalEdgeStyle;rounded=0;orthogonalLoop=1;jettySize=auto;html=1;entryX=0;entryY=0.5;entryDx=0;entryDy=0;" parent="1" source="DsBhjwMzgaidIlR-vrUR-8" target="DsBhjwMzgaidIlR-vrUR-11" edge="1">
          <mxGeometry relative="1" as="geometry" />
        </mxCell>
        <mxCell id="DsBhjwMzgaidIlR-vrUR-8" value="&lt;p style=&quot;line-height: 40%;&quot;&gt;&lt;span style=&quot;font-size: 6px;&quot;&gt;NO&lt;/span&gt;&lt;/p&gt;" style="rounded=1;whiteSpace=wrap;html=1;" parent="1" vertex="1">
          <mxGeometry x="240" y="120" width="40" height="40" as="geometry" />
        </mxCell>
        <mxCell id="0I2AwXr67QMVDCoN9HVT-1" style="edgeStyle=orthogonalEdgeStyle;rounded=0;orthogonalLoop=1;jettySize=auto;html=1;exitX=0.5;exitY=0;exitDx=0;exitDy=0;entryX=0.5;entryY=0;entryDx=0;entryDy=0;" edge="1" parent="1" source="DsBhjwMzgaidIlR-vrUR-11" target="DsBhjwMzgaidIlR-vrUR-14">
          <mxGeometry relative="1" as="geometry" />
        </mxCell>
        <mxCell id="0I2AwXr67QMVDCoN9HVT-2" style="edgeStyle=orthogonalEdgeStyle;rounded=0;orthogonalLoop=1;jettySize=auto;html=1;exitX=0.75;exitY=0;exitDx=0;exitDy=0;entryX=0;entryY=0.5;entryDx=0;entryDy=0;" edge="1" parent="1" source="DsBhjwMzgaidIlR-vrUR-11" target="DsBhjwMzgaidIlR-vrUR-13">
          <mxGeometry relative="1" as="geometry" />
        </mxCell>
        <mxCell id="DsBhjwMzgaidIlR-vrUR-11" value="&lt;p style=&quot;line-height: 40%;&quot;&gt;&lt;font style=&quot;font-size: 6px;&quot;&gt;Is there already an item equipped in it&#39;s place?&lt;/font&gt;&lt;/p&gt;" style="rounded=1;whiteSpace=wrap;html=1;" parent="1" vertex="1">
          <mxGeometry x="320" y="120" width="80" height="40" as="geometry" />
        </mxCell>
        <mxCell id="0I2AwXr67QMVDCoN9HVT-6" style="edgeStyle=orthogonalEdgeStyle;rounded=0;orthogonalLoop=1;jettySize=auto;html=1;exitX=0.5;exitY=1;exitDx=0;exitDy=0;entryX=0.5;entryY=0;entryDx=0;entryDy=0;" edge="1" parent="1" source="DsBhjwMzgaidIlR-vrUR-13" target="0I2AwXr67QMVDCoN9HVT-5">
          <mxGeometry relative="1" as="geometry" />
        </mxCell>
        <mxCell id="DsBhjwMzgaidIlR-vrUR-13" value="&lt;p style=&quot;line-height: 40%;&quot;&gt;&lt;span style=&quot;font-size: 6px;&quot;&gt;YES&lt;/span&gt;&lt;/p&gt;" style="rounded=1;whiteSpace=wrap;html=1;" parent="1" vertex="1">
          <mxGeometry x="480" y="80" width="40" height="40" as="geometry" />
        </mxCell>
        <mxCell id="0I2AwXr67QMVDCoN9HVT-4" style="edgeStyle=orthogonalEdgeStyle;rounded=0;orthogonalLoop=1;jettySize=auto;html=1;exitX=0.5;exitY=1;exitDx=0;exitDy=0;entryX=0.5;entryY=0;entryDx=0;entryDy=0;" edge="1" parent="1" source="DsBhjwMzgaidIlR-vrUR-14" target="0I2AwXr67QMVDCoN9HVT-3">
          <mxGeometry relative="1" as="geometry" />
        </mxCell>
        <mxCell id="DsBhjwMzgaidIlR-vrUR-14" value="&lt;p style=&quot;line-height: 40%;&quot;&gt;&lt;span style=&quot;font-size: 6px;&quot;&gt;NO&lt;/span&gt;&lt;/p&gt;" style="rounded=1;whiteSpace=wrap;html=1;" parent="1" vertex="1">
          <mxGeometry x="680" y="80" width="40" height="40" as="geometry" />
        </mxCell>
        <mxCell id="0I2AwXr67QMVDCoN9HVT-3" value="&lt;p style=&quot;line-height: 40%;&quot;&gt;&lt;font style=&quot;font-size: 6px;&quot;&gt;Set the Global to the &#39;finder&#39; in the array and update the inventory/status slots to show the correct frame. Also set the &#39;E&#39; to display, and upate the player&#39;s &#39;influence&#39;, armor class, ect. Update the inventory item to equipped and &#39;sel_equipped&#39;&lt;/font&gt;&lt;/p&gt;" style="rounded=1;whiteSpace=wrap;html=1;" vertex="1" parent="1">
          <mxGeometry x="660" y="160" width="80" height="80" as="geometry" />
        </mxCell>
        <mxCell id="0I2AwXr67QMVDCoN9HVT-7" style="edgeStyle=orthogonalEdgeStyle;rounded=0;orthogonalLoop=1;jettySize=auto;html=1;exitX=1;exitY=0.5;exitDx=0;exitDy=0;entryX=0;entryY=0.5;entryDx=0;entryDy=0;" edge="1" parent="1" source="0I2AwXr67QMVDCoN9HVT-5" target="0I2AwXr67QMVDCoN9HVT-3">
          <mxGeometry relative="1" as="geometry" />
        </mxCell>
        <mxCell id="0I2AwXr67QMVDCoN9HVT-5" value="&lt;p style=&quot;line-height: 40%;&quot;&gt;&lt;span style=&quot;font-size: 6px;&quot;&gt;Search the inventory for the finder that is currently set for the equipment. Set it from true equipped to false. When the invnetory update happens the &#39;E&#39; will disappear.&lt;/span&gt;&lt;/p&gt;" style="rounded=1;whiteSpace=wrap;html=1;" vertex="1" parent="1">
          <mxGeometry x="460" y="160" width="80" height="80" as="geometry" />
        </mxCell>
        <mxCell id="0I2AwXr67QMVDCoN9HVT-8" value="&lt;p style=&quot;line-height: 40%;&quot;&gt;&lt;span style=&quot;font-size: 6px;&quot;&gt;If the player selects to &#39;unequip&#39; then set the item in the inventory to false &#39;equipped&#39; and the player &#39;armor&#39; to null. Update the inventory.&lt;/span&gt;&lt;/p&gt;" style="rounded=1;whiteSpace=wrap;html=1;" vertex="1" parent="1">
          <mxGeometry x="200" y="200" width="80" height="80" as="geometry" />
        </mxCell>
      </root>
    </mxGraphModel>
  </diagram>
</mxfile>
